<svg width="270" height="60" viewBox="0 0 270 60" fill="none" xmlns="http://www.w3.org/2000/svg">
<rect x="1" y="1" width="268" height="58" stroke="white" stroke-width="2"/>
<path d="M103.122 30.4521C103.122 32.5732 102.533 34.1963 101.355 35.3213C100.178 36.4404 98.4814 37 96.2666 37H92.6719V24.1504H96.6445C98.6895 24.1504 100.28 24.7012 101.417 25.8027C102.554 26.9043 103.122 28.4541 103.122 30.4521ZM100.907 30.5225C100.907 27.4463 99.4688 25.9082 96.5918 25.9082H94.7725V35.2334H96.2666C99.3604 35.2334 100.907 33.6631 100.907 30.5225ZM114.293 32.1221C114.293 33.71 113.886 34.9492 113.071 35.8398C112.257 36.7305 111.123 37.1758 109.67 37.1758C108.762 37.1758 107.959 36.9707 107.262 36.5605C106.564 36.1504 106.028 35.5615 105.653 34.7939C105.278 34.0264 105.091 33.1357 105.091 32.1221C105.091 30.5459 105.495 29.3154 106.304 28.4307C107.112 27.5459 108.252 27.1035 109.723 27.1035C111.129 27.1035 112.242 27.5576 113.062 28.4658C113.883 29.3682 114.293 30.5869 114.293 32.1221ZM107.218 32.1221C107.218 34.3662 108.047 35.4883 109.705 35.4883C111.346 35.4883 112.166 34.3662 112.166 32.1221C112.166 29.9014 111.34 28.791 109.688 28.791C108.82 28.791 108.19 29.0781 107.798 29.6523C107.411 30.2266 107.218 31.0498 107.218 32.1221ZM124.646 37L123.39 32.4648C123.237 31.9844 122.962 30.8682 122.563 29.1162H122.484C122.145 30.6982 121.875 31.8203 121.676 32.4824L120.384 37H118.099L115.374 27.2793H117.483L118.723 32.0693C119.004 33.2529 119.203 34.2666 119.32 35.1104H119.373C119.432 34.6826 119.52 34.1934 119.637 33.6426C119.76 33.0859 119.865 32.6699 119.953 32.3945L121.43 27.2793H123.697L125.13 32.3945C125.218 32.6816 125.326 33.1211 125.455 33.7129C125.59 34.3047 125.669 34.7646 125.692 35.0928H125.763C125.851 34.3721 126.056 33.3643 126.378 32.0693L127.635 27.2793H129.709L126.967 37H124.646ZM139.939 37H137.865V31.0234C137.865 30.2734 137.713 29.7139 137.408 29.3447C137.109 28.9756 136.632 28.791 135.976 28.791C135.103 28.791 134.464 29.0488 134.06 29.5645C133.655 30.0801 133.453 30.9443 133.453 32.1572V37H131.388V27.2793H133.005L133.295 28.5537H133.4C133.693 28.0908 134.109 27.7334 134.648 27.4814C135.188 27.2295 135.785 27.1035 136.441 27.1035C138.773 27.1035 139.939 28.29 139.939 30.6631V37ZM144.879 37H142.813V23.3242H144.879V37ZM156.463 32.1221C156.463 33.71 156.056 34.9492 155.241 35.8398C154.427 36.7305 153.293 37.1758 151.84 37.1758C150.932 37.1758 150.129 36.9707 149.432 36.5605C148.734 36.1504 148.198 35.5615 147.823 34.7939C147.448 34.0264 147.261 33.1357 147.261 32.1221C147.261 30.5459 147.665 29.3154 148.474 28.4307C149.282 27.5459 150.422 27.1035 151.893 27.1035C153.299 27.1035 154.412 27.5576 155.232 28.4658C156.053 29.3682 156.463 30.5869 156.463 32.1221ZM149.388 32.1221C149.388 34.3662 150.217 35.4883 151.875 35.4883C153.516 35.4883 154.336 34.3662 154.336 32.1221C154.336 29.9014 153.51 28.791 151.857 28.791C150.99 28.791 150.36 29.0781 149.968 29.6523C149.581 30.2266 149.388 31.0498 149.388 32.1221ZM164.927 37L164.514 35.6465H164.443C163.975 36.2383 163.503 36.6426 163.028 36.8594C162.554 37.0703 161.944 37.1758 161.2 37.1758C160.245 37.1758 159.498 36.918 158.959 36.4023C158.426 35.8867 158.159 35.1572 158.159 34.2139C158.159 33.2119 158.531 32.4561 159.275 31.9463C160.02 31.4365 161.153 31.1582 162.677 31.1113L164.355 31.0586V30.54C164.355 29.9189 164.209 29.4561 163.916 29.1514C163.629 28.8408 163.181 28.6855 162.571 28.6855C162.073 28.6855 161.596 28.7588 161.139 28.9053C160.682 29.0518 160.242 29.2246 159.82 29.4238L159.152 27.9473C159.68 27.6719 160.257 27.4639 160.884 27.3232C161.511 27.1768 162.103 27.1035 162.659 27.1035C163.896 27.1035 164.827 27.373 165.454 27.9121C166.087 28.4512 166.403 29.2979 166.403 30.4521V37H164.927ZM161.851 35.5938C162.601 35.5938 163.201 35.3857 163.652 34.9697C164.109 34.5479 164.338 33.959 164.338 33.2031V32.3594L163.09 32.4121C162.117 32.4473 161.408 32.6113 160.963 32.9043C160.523 33.1914 160.304 33.6338 160.304 34.2314C160.304 34.665 160.433 35.002 160.69 35.2422C160.948 35.4766 161.335 35.5938 161.851 35.5938ZM172.564 37.1758C171.352 37.1758 170.405 36.7363 169.726 35.8574C169.046 34.9785 168.706 33.7451 168.706 32.1572C168.706 30.5635 169.049 29.3242 169.734 28.4395C170.426 27.5488 171.381 27.1035 172.6 27.1035C173.877 27.1035 174.85 27.5752 175.518 28.5186H175.623C175.523 27.8213 175.474 27.2705 175.474 26.8662V23.3242H177.548V37H175.931L175.57 35.7256H175.474C174.812 36.6924 173.842 37.1758 172.564 37.1758ZM173.118 35.5059C173.968 35.5059 174.586 35.2686 174.973 34.7939C175.359 34.3135 175.559 33.5371 175.57 32.4648V32.1748C175.57 30.9502 175.371 30.0801 174.973 29.5645C174.574 29.0488 173.95 28.791 173.101 28.791C172.374 28.791 171.814 29.0869 171.422 29.6787C171.029 30.2646 170.833 31.1025 170.833 32.1924C170.833 33.2705 171.023 34.0938 171.404 34.6621C171.785 35.2246 172.356 35.5059 173.118 35.5059Z" fill="white"/>
</svg>
